<svg width="26" height="26" viewBox="0 0 26 26" fill="none" xmlns="http://www.w3.org/2000/svg">
<path d="M22 6.97998C18.67 6.64998 15.32 6.47998 11.98 6.47998C10 6.47998 8.02 6.57998 6.04 6.77998L4 6.97998" stroke="#0A0A0A" stroke-width="1.5" stroke-linecap="round" stroke-linejoin="round"/>
<path d="M9.5 5.97L9.72 4.66C9.88 3.71 10 3 11.69 3H14.31C16 3 16.13 3.75 16.28 4.67L16.5 5.97" stroke="#0A0A0A" stroke-width="1.5" stroke-linecap="round" stroke-linejoin="round"/>
<path d="M19.8499 10.14L19.1999 20.21C19.0899 21.78 18.9999 23 16.2099 23H9.7899C6.9999 23 6.9099 21.78 6.7999 20.21L6.1499 10.14" stroke="#0A0A0A" stroke-width="1.5" stroke-linecap="round" stroke-linejoin="round"/>
<path d="M11.3301 17.5H14.6601" stroke="#0A0A0A" stroke-width="1.5" stroke-linecap="round" stroke-linejoin="round"/>
<path d="M10.5 13.5H15.5" stroke="#0A0A0A" stroke-width="1.5" stroke-linecap="round" stroke-linejoin="round"/>
</svg>
