<svg width="26" height="26" viewBox="0 0 26 26" fill="none" xmlns="http://www.w3.org/2000/svg">
<path d="M13.0002 13.6666C13.3684 13.6666 13.6668 13.3682 13.6668 13C13.6668 12.6318 13.3684 12.3333 13.0002 12.3333C12.632 12.3333 12.3335 12.6318 12.3335 13C12.3335 13.3682 12.632 13.6666 13.0002 13.6666Z" stroke="#FFBD00" stroke-width="1.33333" stroke-linecap="round" stroke-linejoin="round"/>
<path d="M17.6667 13.6666C18.0349 13.6666 18.3333 13.3682 18.3333 13C18.3333 12.6318 18.0349 12.3333 17.6667 12.3333C17.2985 12.3333 17 12.6318 17 13C17 13.3682 17.2985 13.6666 17.6667 13.6666Z" stroke="#FFBD00" stroke-width="1.33333" stroke-linecap="round" stroke-linejoin="round"/>
<path d="M8.33317 13.6666C8.70136 13.6666 8.99984 13.3682 8.99984 13C8.99984 12.6318 8.70136 12.3333 8.33317 12.3333C7.96498 12.3333 7.6665 12.6318 7.6665 13C7.6665 13.3682 7.96498 13.6666 8.33317 13.6666Z" stroke="#FFBD00" stroke-width="1.33333" stroke-linecap="round" stroke-linejoin="round"/>
</svg>
