<svg width="26" height="26" viewBox="0 0 26 26" fill="none" xmlns="http://www.w3.org/2000/svg">
<path d="M13.0295 2.72461C9.44362 2.72461 6.52945 5.63878 6.52945 9.22461V12.3554C6.52945 13.0163 6.24779 14.0238 5.91195 14.5871L4.66612 16.6563C3.89695 17.9346 4.42779 19.3538 5.83612 19.8304C10.5053 21.3904 15.5428 21.3904 20.212 19.8304C21.5228 19.3971 22.097 17.8479 21.382 16.6563L20.1361 14.5871C19.8111 14.0238 19.5295 13.0163 19.5295 12.3554V9.22461C19.5295 5.64961 16.6045 2.72461 13.0295 2.72461Z" stroke="#FFBD00" stroke-width="1.5" stroke-miterlimit="10" stroke-linecap="round"/>
<path d="M15.4375 3.59669C14.69 3.30419 13.8775 3.14169 13.0217 3.14169C12.1767 3.14169 11.3642 3.29335 10.6167 3.59669C11.0825 2.71919 12.0034 2.16669 13.0217 2.16669C14.0509 2.16669 14.9609 2.71919 15.4375 3.59669Z" fill="#FFBD00"/>
<path d="M16.0657 21.6775C15.6107 22.9342 14.4082 23.8334 12.9998 23.8334C12.144 23.8334 11.299 23.4867 10.7032 22.8692C10.3565 22.5442 10.0965 22.1109 9.94482 21.6667C10.0857 21.6884 10.2265 21.6992 10.3782 21.7209C10.6273 21.7534 10.8873 21.7859 11.1473 21.8075C11.7648 21.8617 12.3932 21.8942 13.0215 21.8942C13.639 21.8942 14.2565 21.8617 14.8632 21.8075C15.0907 21.7859 15.3182 21.775 15.5348 21.7425C15.7082 21.7209 15.8815 21.6992 16.0657 21.6775Z" fill="#FFBD00"/>
</svg>
