<svg width="32" height="32" viewBox="0 0 32 32" fill="none" xmlns="http://www.w3.org/2000/svg">
<path d="M31.452 29.6707L28.6493 26.8693C29.2397 25.9681 29.6019 24.9366 29.7044 23.8641C29.807 22.7916 29.6469 21.7102 29.238 20.7134C28.8291 19.7165 28.1837 18.8342 27.3575 18.1427C26.5313 17.4511 25.5492 16.9711 24.496 16.744L24.452 16.736V11.3107C24.4534 10.9959 24.3433 10.6908 24.1413 10.4493L24.1427 10.452V10.4453L24.0627 10.3573L24.052 10.3453L24.016 10.3093L14.096 0.389333L14.0093 0.310667L13.9747 0.286667L13.908 0.236L13.8747 0.212L13.8027 0.166667L13.772 0.150667C13.7418 0.132889 13.7084 0.116444 13.672 0.101333L13.6293 0.084L13.5613 0.06L13.5133 0.0453333L13.436 0.0253333L13.3987 0.0173333L13.284 0H1.35333C0.995635 0.00174247 0.653025 0.144337 0.399717 0.396896C0.14641 0.649455 0.00280126 0.991642 0 1.34933L0 28.5187C0.00034795 28.878 0.142873 29.2226 0.396445 29.4771C0.650016 29.7317 0.994026 29.8756 1.35333 29.8773H23.1C24.4004 29.8815 25.6724 29.4976 26.7533 28.7747L26.7293 28.7893L29.532 31.592C29.7904 31.8271 30.1294 31.9536 30.4786 31.9453C30.8278 31.937 31.1604 31.7945 31.4073 31.5474C31.6543 31.3003 31.7965 30.9676 31.8046 30.6184C31.8127 30.2691 31.6859 29.9302 31.4507 29.672L31.452 29.6733V29.6707ZM27.0187 23.2347C27.0188 23.7501 26.9173 24.2604 26.7202 24.7366C26.523 25.2128 26.234 25.6455 25.8696 26.01C25.5053 26.3745 25.0727 26.6637 24.5965 26.861C24.1204 27.0583 23.6101 27.1599 23.0947 27.16C22.5793 27.1601 22.0689 27.0587 21.5927 26.8615C21.1165 26.6644 20.6838 26.3753 20.3193 26.011C19.9548 25.6466 19.6656 25.214 19.4683 24.7379C19.271 24.2617 19.1694 23.7514 19.1693 23.236C19.169 22.1951 19.5821 21.1967 20.3179 20.4605C21.0537 19.7242 22.0518 19.3104 23.0927 19.31C24.1336 19.3096 25.1319 19.7228 25.8682 20.4586C26.6045 21.1943 27.0183 22.1938 27.0187 23.2347ZM14.4907 4.62667L19.8147 9.952H14.4907V4.62667ZM2.71733 2.70667H11.7747V11.3107C11.7747 12.0613 12.3827 12.6693 13.1333 12.6693H21.7373V16.736C18.7 17.3853 16.4547 20.0467 16.4547 23.2333C16.4547 24.712 16.9373 26.0773 17.7547 27.18L17.7413 27.1627H2.716L2.71733 2.70667Z" fill="#730000"/>
</svg>
